<?xml version="1.0" standalone="no"?>
<!DOCTYPE svg PUBLIC "-//W3C//DTD SVG 20010904//EN"
 "http://www.w3.org/TR/2001/REC-SVG-20010904/DTD/svg10.dtd">
<svg version="1.0" xmlns="http://www.w3.org/2000/svg"
 width="415.000000pt" height="176.000000pt" viewBox="0 0 415.000000 176.000000"
 preserveAspectRatio="xMidYMid meet">

<g transform="translate(0.000000,176.000000) scale(0.100000,-0.100000)"
fill="#000000" stroke="none">
<path d="M55 1702 c-3 -3 -5 -162 -5 -354 l0 -348 33 0 c17 0 137 7 266 15
129 8 237 12 240 9 3 -3 -8 -15 -24 -27 -96 -66 -215 -220 -215 -277 0 -9 -13
-23 -28 -33 -43 -24 -92 -78 -108 -114 -23 -52 -18 -124 11 -166 l24 -37 -35
-26 c-43 -34 -81 -96 -89 -149 -7 -48 24 -117 68 -149 41 -30 159 -30 202 0
23 16 50 23 111 26 106 6 174 38 244 114 48 54 51 55 73 41 13 -8 55 -28 93
-45 l71 -30 91 69 c50 38 94 69 97 69 2 0 25 -15 49 -34 49 -37 130 -60 173
-49 15 3 58 30 96 59 77 60 56 60 186 4 l53 -24 102 53 c55 28 108 51 116 51
8 0 63 -21 121 -46 l107 -46 71 46 71 46 108 -56 109 -56 89 42 c49 23 100 44
114 46 18 4 51 -11 123 -55 54 -34 101 -61 104 -61 3 0 28 14 55 31 l49 32 29
-35 c37 -44 87 -59 171 -52 69 7 101 -4 190 -63 l36 -23 59 27 c47 22 77 28
148 31 l89 4 -6 157 c-8 177 -17 219 -56 263 l-28 32 28 39 c62 85 59 160 -10
228 -64 65 -151 73 -220 22 l-33 -26 -38 22 c-47 26 -102 27 -159 1 -24 -11
-47 -20 -52 -20 -5 0 -43 25 -83 55 -40 30 -78 55 -85 55 -6 0 -29 -9 -51 -20
-35 -18 -41 -18 -74 -5 -48 20 -63 19 -123 -11 l-52 -27 -98 49 -98 49 160 5
c88 3 176 2 195 -2 54 -12 263 -9 299 3 24 8 39 8 60 -1 25 -10 206 -15 361
-11 19 1 99 -4 177 -10 159 -14 199 -8 252 37 20 17 33 39 39 72 10 45 7 334
-3 399 -8 47 -62 89 -132 103 -70 15 -288 9 -321 -9 -16 -8 -27 -9 -42 -1 -21
11 -268 8 -416 -5 -61 -6 -75 -4 -93 11 -12 10 -21 24 -21 31 0 7 -6 10 -12 8
-72 -24 -1014 -39 -1041 -17 -41 34 -87 42 -247 42 -113 0 -170 -4 -193 -14
-41 -16 -83 -66 -92 -105 l-6 -30 -31 34 c-47 55 -109 68 -292 63 -95 -2 -159
-8 -173 -16 -19 -10 -27 -10 -45 0 -32 17 -305 24 -366 8 -26 -6 -62 -23 -79
-36 l-33 -25 0 66 c0 44 -4 67 -12 70 -20 6 -387 12 -393 7z m285 -242 l0
-190 75 0 75 0 0 -74 0 -75 -42 -5 c-24 -3 -107 -7 -185 -10 l-143 -5 0 275 0
274 110 0 110 0 0 -190z m1605 145 c20 -19 25 -34 25 -75 l0 -50 -89 0 c-82 0
-89 2 -94 21 -8 30 -31 18 -35 -18 l-3 -31 92 -4 c123 -6 129 -12 129 -154 0
-57 -5 -114 -11 -128 -17 -36 -57 -46 -194 -46 l-123 0 -41 41 c-34 34 -41 48
-41 80 l0 39 89 0 c81 0 89 -2 94 -21 9 -33 41 -20 45 19 l3 32 -86 0 c-82 0
-121 10 -137 34 -4 6 -8 64 -8 128 0 114 1 117 26 137 24 19 40 21 181 21 150
0 155 -1 178 -25z m1063 -32 c3 -22 8 -23 98 -23 l94 0 0 -55 0 -55 -95 0 -96
0 3 -107 c4 -130 22 -142 26 -18 l3 85 79 0 79 0 3 -110 c2 -60 1 -120 -2
-132 -10 -41 -46 -49 -191 -41 -176 8 -169 1 -169 183 0 133 -1 140 -20 140
-17 0 -20 7 -20 50 0 43 3 50 20 50 15 0 20 7 20 25 0 23 4 24 63 28 96 5 102
4 105 -20z m-2126 -3 c21 -6 42 -20 48 -30 6 -12 9 -88 8 -197 l-3 -178 -65
-6 c-36 -3 -79 -13 -97 -22 -22 -12 -57 -17 -113 -17 -78 0 -116 10 -132 34
-4 6 -8 92 -8 192 0 200 3 210 60 224 51 12 259 12 302 0z m485 -24 c18 -21
23 -38 21 -65 l-3 -36 -92 -3 c-78 -2 -93 0 -93 13 0 8 -9 15 -20 15 -16 0
-20 -7 -20 -30 l0 -30 90 0 c83 0 93 -2 115 -25 22 -21 25 -33 25 -95 0 -97
-8 -107 -79 -102 -47 3 -67 -1 -108 -21 -48 -25 -52 -25 -94 -11 -39 14 -47
14 -75 0 -29 -13 -33 -13 -48 3 -10 11 -16 36 -16 64 l0 47 95 0 c78 0 95 -3
95 -15 0 -8 9 -15 20 -15 16 0 20 7 20 30 l0 30 -95 0 c-129 0 -135 6 -135
133 0 61 5 99 13 111 20 28 71 35 221 33 l138 -2 25 -29z m1396 6 c15 -13 17
-38 17 -224 l0 -209 -82 3 -83 3 -1 135 c0 185 -2 202 -16 198 -10 -3 -14 -50
-18 -169 l-5 -164 -82 -3 -83 -3 0 226 0 225 85 0 c55 0 85 -4 85 -11 0 -7 7
-8 18 -4 61 26 133 25 165 -3z m-417 10 c29 -19 34 -56 34 -246 l0 -196 -77 0
c-43 1 -98 5 -122 9 -33 7 -50 5 -70 -7 -30 -17 -70 -11 -95 14 -13 12 -16 38
-16 117 0 56 4 107 8 114 13 21 62 33 133 33 l70 0 -3 32 c-3 34 -38 55 -38
24 0 -13 -14 -16 -85 -16 l-85 0 0 45 c0 32 6 51 20 65 18 18 33 20 168 20 81
0 152 -4 158 -8z m1243 -18 c19 -25 21 -40 21 -201 0 -169 -6 -206 -34 -225
-6 -4 -75 -8 -152 -8 -199 0 -188 -13 -192 222 -3 175 -2 185 18 211 l21 27
149 0 149 0 20 -26z m401 6 c15 -15 20 -33 20 -70 l0 -50 -84 0 c-77 0 -84 2
-89 21 -8 31 -31 18 -35 -19 l-3 -32 76 0 c73 0 111 -10 127 -34 4 -6 8 -59 8
-118 0 -150 2 -148 -177 -148 -178 0 -187 4 -191 88 l-3 62 79 0 c71 0 80 -2
85 -20 3 -11 12 -20 21 -20 12 0 16 10 16 35 l0 35 -83 0 c-117 0 -123 7 -120
147 3 147 -3 143 185 143 135 0 150 -2 168 -20z m-2461 -395 c53 -27 49 -94
-7 -134 -24 -17 -32 -31 -37 -72 -4 -27 -4 -53 -1 -56 8 -9 62 16 143 64 l72
44 63 -29 c85 -40 142 -56 160 -46 8 5 60 42 116 83 l103 73 44 -12 c44 -12
45 -14 45 -54 l0 -41 60 3 60 4 0 -36 c0 -20 2 -36 5 -36 3 0 42 18 87 40 l80
39 77 -38 c42 -21 94 -44 117 -51 37 -11 45 -10 92 14 61 31 64 31 109 9 33
-15 37 -15 78 5 l43 21 45 -32 c25 -18 61 -45 82 -61 l36 -29 52 25 c84 41
106 43 157 10 69 -44 79 -45 90 -17 23 60 123 70 172 17 52 -56 45 -103 -27
-188 l-44 -51 37 -24 c59 -38 74 -81 80 -230 l5 -129 -47 0 c-25 0 -72 -9
-104 -21 -31 -11 -64 -23 -73 -26 -9 -2 -36 9 -60 25 -67 44 -110 55 -193 47
-64 -6 -75 -4 -99 15 -47 37 -38 71 40 151 36 38 64 71 62 73 -2 2 -19 11 -36
20 -44 22 -60 50 -68 118 -6 53 -8 57 -25 48 -10 -6 -35 -10 -54 -10 l-36 0 0
-70 0 -70 39 0 c28 0 49 -8 70 -26 54 -45 41 -66 -102 -165 -76 -52 -79 -53
-105 -38 -15 9 -63 37 -108 63 l-80 47 -73 -31 c-39 -17 -87 -39 -105 -49
l-33 -19 -107 54 c-59 30 -114 54 -123 54 -8 0 -44 -20 -79 -44 l-63 -45 -93
43 c-51 24 -102 46 -114 50 -14 4 -54 -11 -128 -49 l-108 -55 -80 35 c-43 19
-86 35 -95 35 -9 0 -50 -27 -91 -61 -71 -58 -76 -61 -116 -55 -54 8 -101 38
-126 78 -19 31 -20 51 -20 298 0 175 -4 260 -10 250 -6 -9 -10 -119 -10 -261
0 -181 -3 -249 -12 -260 -7 -9 -52 -46 -100 -82 l-88 -67 -55 21 c-30 11 -71
35 -90 53 l-35 33 0 107 c0 58 -4 106 -9 106 -4 0 -11 -44 -13 -97 -7 -124
-25 -169 -94 -232 -67 -62 -129 -84 -222 -80 -62 3 -69 1 -94 -24 -35 -35
-111 -38 -151 -7 -28 22 -43 74 -32 110 18 58 131 140 192 140 36 0 61 32 55
68 -5 38 -6 38 -34 12 -26 -24 -84 -27 -114 -5 -29 20 -37 68 -18 113 19 46
48 77 97 105 24 13 40 30 43 47 20 96 96 189 241 292 159 115 218 133 320 99
37 -12 45 -12 67 3 32 20 49 20 92 0 31 -15 35 -15 61 4 50 36 106 47 167 33
49 -11 57 -10 87 8 40 25 60 26 98 6z m481 -112 c0 -5 -24 -25 -52 -46 -36
-26 -58 -35 -73 -31 -46 14 -115 47 -115 55 0 5 37 9 83 10 45 0 91 4 102 9
25 11 55 12 55 3z m-360 -23 c0 -5 -5 -10 -11 -10 -5 0 -7 5 -4 10 3 6 8 10
11 10 2 0 4 -4 4 -10z m817 -16 c-38 -20 -52 -23 -63 -13 -7 6 -31 17 -51 25
-36 13 -34 13 62 13 l100 0 -48 -25z"/>
<path d="M710 1350 c0 -113 1 -120 20 -120 19 0 20 7 20 120 0 113 -1 120 -20
120 -19 0 -20 -7 -20 -120z"/>
<path d="M2170 1260 c0 -34 3 -41 18 -38 12 2 17 13 17 38 0 25 -5 36 -17 38
-15 3 -18 -4 -18 -38z"/>
<path d="M3407 1464 c-4 -4 -7 -61 -7 -126 0 -112 1 -118 20 -118 20 0 20 5
18 122 -3 113 -10 142 -31 122z"/>
<path d="M1437 1085 c-36 -25 -38 -25 -82 -10 -25 8 -55 15 -66 15 -35 0 -84
-29 -148 -87 l-61 -55 0 -64 c0 -50 3 -64 15 -64 11 0 15 13 15 54 0 51 3 57
37 85 40 33 62 38 94 20 19 -10 20 -18 13 -284 -6 -246 -5 -276 10 -299 20
-31 71 -59 94 -51 31 10 126 101 118 113 -5 9 -13 9 -28 1 -14 -7 -23 -8 -30
-1 -7 7 -8 103 -3 284 l7 273 40 37 c22 20 37 42 33 47 -9 16 -16 14 -58 -14z"/>
<path d="M795 1035 c-61 -33 -237 -168 -272 -209 -36 -43 -56 -93 -57 -146 -1
-41 -3 -45 -32 -50 -44 -10 -89 -39 -108 -70 -18 -32 -20 -49 -7 -69 8 -12 15
-9 39 17 23 24 39 32 65 32 45 0 59 -19 65 -84 7 -90 -17 -118 -126 -146 -46
-12 -107 -59 -117 -91 -8 -25 2 -56 21 -63 10 -4 27 6 45 25 29 31 30 32 107
27 130 -9 209 30 257 125 25 50 25 53 25 298 0 136 4 259 10 273 17 45 95 70
141 46 17 -10 19 -22 19 -111 0 -71 -4 -101 -12 -104 -7 -2 -32 -9 -55 -15
-43 -11 -43 -11 -43 -56 l0 -46 33 7 c17 4 40 9 50 11 16 5 17 -6 17 -135 l0
-140 28 -19 c56 -40 65 -38 152 29 84 65 85 66 72 87 -7 10 -15 8 -36 -9 -48
-37 -56 -23 -56 99 l0 109 43 9 c41 9 42 10 45 52 l3 42 -40 0 -41 0 0 109 c0
109 0 109 31 141 42 41 26 62 -23 32 -33 -20 -33 -20 -88 -1 -71 25 -98 24
-155 -6z m-155 -657 c-14 -50 -52 -78 -105 -78 -23 0 -45 3 -48 6 -4 4 16 27
42 53 66 62 73 92 69 301 -3 167 -3 168 22 195 l25 27 3 -234 c2 -145 -1 -247
-8 -270z"/>
<path d="M2058 949 c-54 -39 -98 -74 -98 -79 0 -5 15 -10 33 -12 l32 -3 3
-166 c2 -139 0 -168 -13 -179 -8 -7 -15 -17 -15 -21 0 -5 34 -25 76 -44 l77
-35 69 46 c50 33 67 49 59 57 -7 7 -17 7 -34 0 -17 -8 -31 -7 -55 3 l-32 13 0
161 0 160 43 0 c51 0 87 22 87 54 0 22 -2 23 -38 13 -21 -6 -50 -7 -65 -4 -23
6 -26 13 -29 56 l-3 50 -97 -70z"/>
<path d="M1640 895 c-30 -19 -70 -39 -87 -45 l-33 -12 -1 -174 c-1 -96 -2
-179 -3 -186 -1 -7 15 -15 35 -20 20 -4 62 -19 94 -33 32 -14 62 -25 67 -25 5
0 52 21 106 47 l97 48 1 181 1 181 -51 13 c-28 7 -75 23 -105 36 -29 13 -56
24 -60 23 -3 0 -31 -16 -61 -34z m145 -248 c0 -80 -3 -148 -7 -152 -3 -4 -34
3 -67 16 l-61 22 0 152 0 153 68 -23 67 -23 0 -145z"/>
<path d="M1714 665 c0 -55 1 -76 3 -47 2 29 2 74 0 100 -2 26 -3 2 -3 -53z"/>
<path d="M2484 906 c-11 -8 -50 -27 -85 -41 l-64 -27 0 -177 0 -177 98 -47 99
-46 56 28 c31 16 76 34 100 41 l42 13 0 182 0 182 -42 13 c-24 7 -69 25 -100
41 -66 33 -76 35 -104 15z m64 -102 l52 -19 0 -153 c0 -174 8 -162 -86 -121
l-44 20 0 151 c0 116 3 149 13 145 6 -2 36 -13 65 -23z"/>
<path d="M2534 655 c0 -55 1 -76 3 -47 2 29 2 74 0 100 -2 26 -3 2 -3 -53z"/>
<path d="M777 893 c-4 -3 -7 -32 -7 -64 0 -48 3 -57 15 -53 11 5 15 22 15 65
0 55 -7 69 -23 52z"/>
<path d="M2817 853 c-45 -25 -57 -48 -26 -48 36 -1 39 -14 39 -162 0 -122 -3
-149 -17 -165 -9 -10 -14 -20 -12 -21 10 -9 151 -87 156 -87 10 0 143 95 143
103 0 16 -31 19 -54 4 -21 -14 -26 -14 -55 4 l-31 19 0 140 c0 162 6 173 65
121 20 -17 39 -31 42 -31 3 0 27 12 51 26 38 22 43 29 31 38 -9 6 -36 28 -61
49 -25 20 -48 37 -52 37 -3 0 -24 -12 -46 -26 l-39 -26 -34 26 c-19 14 -38 26
-43 26 -5 0 -30 -12 -57 -27z"/>
<path d="M3565 830 c-4 -6 -4 -23 0 -39 12 -55 -46 -52 -155 6 l-64 35 -68
-33 -68 -33 0 -80 c0 -45 4 -86 8 -92 4 -6 30 -23 57 -37 87 -46 88 -36 -10
-136 -49 -50 -84 -92 -79 -92 5 -1 45 -2 90 -3 70 -1 89 -5 152 -36 61 -31 74
-34 94 -24 13 6 49 17 81 24 l59 12 -6 46 c-3 26 -8 75 -12 109 -5 55 -10 66
-40 93 -19 16 -40 30 -47 30 -7 0 -22 6 -32 14 -18 13 -15 18 48 90 67 76 76
100 57 137 -11 20 -54 26 -65 9z m-188 -125 c21 -8 57 -19 79 -23 l42 -7 -44
-50 -44 -50 -34 19 c-32 17 -35 22 -38 72 -1 30 -2 54 -1 54 2 0 20 -7 40 -15z
m103 -182 c25 -15 30 -24 36 -80 3 -35 4 -67 1 -70 -4 -3 -21 0 -39 8 -18 7
-58 18 -89 24 l-58 10 56 63 c30 34 57 62 60 62 3 0 18 -8 33 -17z"/>
<path d="M2248 793 c-16 -4 -18 -18 -18 -113 0 -103 1 -108 20 -103 18 5 20
14 20 114 0 60 -1 108 -2 108 -2 -1 -11 -3 -20 -6z"/>
<path d="M1087 604 c-10 -11 -9 -94 2 -94 5 0 11 17 14 38 4 38 -4 68 -16 56z"/>
</g>
</svg>
